<svg id="Layer_1" data-name="Layer 1" xmlns="http://www.w3.org/2000/svg" viewBox="0 0 195.66667 133.64375"><defs><style>.cls-1{fill:#3dd83d;fill-opacity:0.5;stroke-width:5.45373px;}.cls-1,.cls-2{stroke:#288c28;}.cls-2{fill:none;stroke-width:2.75823px;}</style></defs><title>G01_Lubrication_System_Symbol_C_GREEN</title><rect class="cls-1" x="36.62554" y="7.06028" width="120.4426" height="119.52319"/><line class="cls-2" x1="157.56814" y1="40.15901" x2="37.12554" y2="40.15901"/><circle class="cls-2" cx="142.09142" cy="27.28728" r="7.35527"/><circle class="cls-2" cx="52.60226" cy="21.31112" r="7.35527"/><line class="cls-2" x1="37.12554" y1="40.15901" x2="157.56814" y2="7.06028"/><path class="cls-2" d="M52.60226,114.78438H21.83782a15.70657,15.70657,0,1,1,0-31.41314h58.5"/><rect class="cls-2" x="80.33777" y="70.57613" width="34.01814" height="29.03801"/><line class="cls-2" x1="36.66584" y1="70.57613" x2="80.33777" y2="70.57613"/><line class="cls-2" x1="114.35591" y1="70.57613" x2="157.56814" y2="70.57613"/><line class="cls-2" x1="37.12554" y1="99.61413" x2="80.33777" y2="99.61413"/><line class="cls-2" x1="157.56814" y1="99.61413" x2="114.35591" y2="99.61413"/><path class="cls-2" d="M141.47848,54.86956h31.958a15.70657,15.70657,0,0,1,0,31.41314H114.35591"/><line class="cls-2" x1="180.93646" y1="114.78438" x2="157.56814" y2="114.78438"/><line class="cls-2" x1="169.52874" y1="104.31058" x2="190.47636" y2="125.25819"/><line class="cls-2" x1="190.47636" y1="104.31058" x2="169.52874" y2="125.25819"/></svg>