<svg id="Layer_1" data-name="Layer 1" xmlns="http://www.w3.org/2000/svg" viewBox="0 0 193.68958 133.64375"><defs><style>.cls-1{fill:#fc0d11;fill-opacity:0.5;stroke-width:5.45373px;}.cls-1,.cls-2{stroke:#960810;}.cls-2{fill:none;stroke-width:2.75823px;}</style></defs><title>G01_Lubrication_System_Symbol_B_RED</title><rect class="cls-1" x="36.66584" y="7.06028" width="120.4426" height="119.52319"/><line class="cls-2" x1="157.10844" y1="40.15901" x2="36.66584" y2="40.15901"/><circle class="cls-2" cx="141.63171" cy="27.28728" r="7.35527"/><circle class="cls-2" cx="52.14256" cy="21.31112" r="7.35527"/><line class="cls-2" x1="36.66584" y1="40.15901" x2="157.10844" y2="7.06028"/><path class="cls-2" d="M55.94936,57.55116H19.53968a14.04015,14.04015,0,1,0,0,28.08029H79.87807"/><rect class="cls-2" x="79.87807" y="70.57613" width="34.01814" height="29.03801"/><line class="cls-2" x1="36.20613" y1="70.57613" x2="79.87807" y2="70.57613"/><line class="cls-2" x1="113.89621" y1="70.57613" x2="157.10844" y2="70.57613"/><line class="cls-2" x1="36.66584" y1="99.61413" x2="79.87807" y2="99.61413"/><line class="cls-2" x1="157.10844" y1="99.61413" x2="113.89621" y2="99.61413"/><path class="cls-2" d="M138.87832,113.71175h35.27159a14.04015,14.04015,0,0,0,0-28.0803H114.63338"/></svg>