<svg xmlns="http://www.w3.org/2000/svg" viewBox="0 0 133.64375 133.64375"><defs><style>.cls-1,.cls-4{fill:#4fe4fa;}.cls-2{fill:#2f8794;}.cls-3{fill:none;}.cls-4{stroke:#2f8794;stroke-linejoin:bevel;stroke-width:6px;}</style></defs><title>General_Pump_BLUE</title><g id="Layer_3" data-name="Layer 3"><path class="cls-1" d="M66.82178,124.833A58.01075,58.01075,0,1,1,124.832,66.82178,58.076,58.076,0,0,1,66.82178,124.833Z"/><path class="cls-2" d="M66.8219,11.20148a55.6204,55.6204,0,1,1-55.62042,55.6204A55.68339,55.68339,0,0,1,66.8219,11.20148m0-4.78a60.40035,60.40035,0,1,0,60.40033,60.40035A60.40037,60.40037,0,0,0,66.8219,6.42153Z"/></g><g id="Layer_2" data-name="Layer 2"><rect class="cls-3" width="133.64375" height="133.64375"/><circle class="cls-1" cx="66.8219" cy="66.8219" r="60.68085" transform="translate(-27.67854 66.8219) rotate(-45)"/><path class="cls-2" d="M66.8219,8.64093a58.18095,58.18095,0,1,1-58.181,58.181A58.24683,58.24683,0,0,1,66.8219,8.64093m0-5a63.18095,63.18095,0,1,0,63.18091,63.181A63.18095,63.18095,0,0,0,66.8219,3.64093Z"/><polyline class="cls-4" points="6.422 67.667 66.822 5.835 127.222 67.667"/></g></svg>