<?xml version="1.0" encoding="UTF-8" standalone="no"?>
<!-- Generator: Adobe Illustrator 24.0.2, SVG Export Plug-In . SVG Version: 6.00 Build 0)  -->

<svg
   xmlns:dc="http://purl.org/dc/elements/1.1/"
   xmlns:cc="http://creativecommons.org/ns#"
   xmlns:rdf="http://www.w3.org/1999/02/22-rdf-syntax-ns#"
   xmlns:svg="http://www.w3.org/2000/svg"
   xmlns="http://www.w3.org/2000/svg"
   xmlns:sodipodi="http://sodipodi.sourceforge.net/DTD/sodipodi-0.dtd"
   xmlns:inkscape="http://www.inkscape.org/namespaces/inkscape"
   version="1.1"
   x="0px"
   y="0px"
   viewBox="0 0 2572.5 1287.6"
   style="enable-background:new 0 0 2572.5 1287.6;"
   xml:space="preserve"
   id="svg124"
   sodipodi:docname="G01 Lubrication System_v06 - Copy.svg"
   inkscape:version="0.92.4 (5da689c313, 2019-01-14)"><metadata
   id="metadata130"><rdf:RDF><cc:Work
       rdf:about=""><dc:format>image/svg+xml</dc:format><dc:type
         rdf:resource="http://purl.org/dc/dcmitype/StillImage" /></cc:Work></rdf:RDF></metadata><defs
   id="defs128">
	
	
	
	
	
	
	
	
	
	
	
	
	
	
	
	
	
	
	
	
	
	
	
	
	
	
	
	
	
	
	
	
	
	
	
	
	

	
	
	
	
	
	
	
	
	
	
	
	
	
	
	
	
	
	
	
	
	
	
</defs><sodipodi:namedview
   pagecolor="#ffffff"
   bordercolor="#666666"
   borderopacity="1"
   objecttolerance="10"
   gridtolerance="10"
   guidetolerance="10"
   inkscape:pageopacity="0"
   inkscape:pageshadow="2"
   inkscape:window-width="2560"
   inkscape:window-height="1361"
   id="namedview126"
   showgrid="false"
   inkscape:zoom="0.45461527"
   inkscape:cx="954.2663"
   inkscape:cy="471.96866"
   inkscape:window-x="-9"
   inkscape:window-y="-9"
   inkscape:window-maximized="1"
   inkscape:current-layer="svg124" />
<style
   type="text/css"
   id="style2">
	.st0{fill:none;stroke:#797979;stroke-width:4.3401;}
	.st1{fill:#797979;}
</style>
<path
   sodipodi:nodetypes="ccc"
   style="fill:none;stroke:#797979;stroke-width:4.34009981"
   inkscape:connector-curvature="0"
   id="path4"
   d="m 2452.9626,311.75642 v 319.08979 h -35.6252"
   class="st0" /><path
   sodipodi:nodetypes="ccc"
   style="fill:none;stroke:#797979;stroke-width:4.34009981"
   inkscape:connector-curvature="0"
   id="path6"
   d="m 2258.7307,311.75643 v 375.78271 h 88.5386"
   class="st0" /><path
   sodipodi:nodetypes="ccc"
   style="fill:none;stroke:#797979;stroke-width:4.34010029"
   inkscape:connector-curvature="0"
   id="path8"
   d="m 2008.7489,311.76158 -0.7578,319.08233 h 35.6177"
   class="st0" /><polyline
   style="fill:none;stroke:#797979;stroke-width:6.87886763"
   id="polyline10"
   points="1863.5,128.1 1863.1,649.8 1809.5,649.8  "
   class="st0"
   transform="matrix(0.64997856,0,0,0.61244409,630.81441,233.30395)" /><polyline
   style="opacity:1;fill:none;stroke:#797979;stroke-width:3.92526126;stroke-miterlimit:4;stroke-dasharray:none"
   id="polyline12"
   points="1684.7,128.1 1684.4,695.6 1740.6,695.6  "
   class="st0"
   transform="matrix(1.5665567,0,0,0.66288277,-972.67004,226.63987)" /><polyline
   style="fill:none;stroke:#797979;stroke-width:5.24388409"
   id="polyline14"
   points="1151.8,152.7 1151.8,696.1 1080.2,696.1  "
   class="st0"
   transform="matrix(1,0,0,0.6850043,0,207.15627)" /><path
   style="fill:none;stroke:#797979;stroke-width:4.34009981"
   inkscape:connector-curvature="0"
   id="path16"
   d="M 1127.2,311.75643"
   class="st0" /><polyline
   style="fill:none;stroke:#797979;stroke-width:4.85331535"
   id="polyline18"
   points="1127.2,152.7 1127.2,671.5 1080.2,671.5  "
   class="st0"
   transform="matrix(1.1859109,0,0,0.67432683,-205.18989,208.78672)" /><polyline
   style="fill:none;stroke:#797979;stroke-width:5.90931797"
   id="polyline20"
   points="969.2,152.7 969.5,649.8 1011.5,649.8  "
   class="st0"
   transform="matrix(0.84012148,0,0,0.64207038,158.33573,213.71342)" /><polyline
   style="fill:none;stroke:#797979;stroke-width:5.70147228"
   id="polyline22"
   points="946.2,152.7 946.2,671.5 1011.5,671.5  "
   class="st0"
   transform="matrix(0.860029,0,0,0.67377098,137.01062,208.8716)" /><polyline
   style="fill:none;stroke:#797979;stroke-width:5.21905518"
   id="polyline24"
   points="923.1,152.7 923.1,696.1 1011.5,696.1  "
   class="st0"
   transform="matrix(1,0,0,0.69153735,0,206.15867)" /><polyline
   style="fill:none;stroke:#797979;stroke-width:4.7509861"
   id="polyline26"
   points="851,245.3 851,695.6 778.6,695.6  "
   class="st0"
   transform="matrix(1,0,0,0.83451071,0,107.05095)" /><polyline
   style="fill:none;stroke:#797979;stroke-width:4.51842213"
   id="polyline28"
   points="828.2,245.3 827.7,673.6 778.6,673.6  "
   class="st0"
   transform="matrix(1.1302341,0,0,0.8163144,-104.63008,111.51666)" /><polyline
   style="fill:none;stroke:#797979;stroke-width:4.20646143"
   id="polyline30"
   points="804.7,245.3 804.7,650.2 778.6,650.2  "
   class="st0"
   transform="matrix(1.3493819,0,0,0.78891593,-276.58819,118.23535)" /><polyline
   style="fill:none;stroke:#797979;stroke-width:4.42041159"
   id="polyline32"
   points="678.8,269.9 678.8,650.2 709.7,650.2  "
   class="st0"
   transform="matrix(1.1484461,0,0,0.83938931,-103.05877,85.205252)" /><polyline
   style="fill:none;stroke:#797979;stroke-width:4.5627389"
   id="polyline34"
   points="709.6,673.6 655.8,673.6 655.8,269.9  "
   class="st0"
   transform="matrix(1.0451139,0,0,0.86573422,-30.799279,78.094761)" /><polyline
   style="fill:none;stroke:#797979;stroke-width:4.61937428"
   id="polyline36"
   points="632.6,269.9 632.6,695.6 709.6,695.6  "
   class="st0"
   transform="matrix(1,0,0,0.88274068,0,73.504717)" /><line
   style="fill:none;stroke:#797979;stroke-width:4.34009981"
   id="line50"
   y2="1085.8"
   x2="742.40002"
   y1="706.20001"
   x1="742.40002"
   class="st0" /><line
   style="fill:none;stroke:#797979;stroke-width:4.34009981"
   id="line52"
   y2="1085.8"
   x2="438.39999"
   y1="706.79999"
   x1="438.39999"
   class="st0" /><line
   style="fill:none;stroke:#797979;stroke-width:4.34009981"
   id="line54"
   y2="1085.8"
   x2="1046.2"
   y1="706.20001"
   x1="1046.2"
   class="st0" /><line
   style="fill:none;stroke:#797979;stroke-width:4.34009981"
   id="line56"
   y2="1101.8"
   x2="97.599998"
   y1="1101.8"
   x1="382.70001"
   class="st0" /><line
   style="fill:none;stroke:#797979;stroke-width:4.34009981"
   id="line58"
   y2="1101.8"
   x2="97.599998"
   y1="911.20001"
   x1="97.599998"
   class="st0" /><polyline
   style="fill:none;stroke:#797979;stroke-width:4.34009981"
   id="polyline60"
   points="1102.1,1101.8 1231.2,1101.8 1231.2,1223.6 4,1223.6 4,885 37.2,885  "
   class="st0" /><line
   style="fill:none;stroke:#797979;stroke-width:4.34009981"
   id="line62"
   y2="1085.8"
   x2="1776.1"
   y1="706.20001"
   x1="1776.1"
   class="st0" /><line
   style="fill:none;stroke:#797979;stroke-width:4.34009981"
   id="line64"
   y2="1085.8"
   x2="2080.1001"
   y1="707.70001"
   x1="2080.1001"
   class="st0" /><line
   style="fill:none;stroke:#797979;stroke-width:4.34009981"
   id="line66"
   y2="1085.8"
   x2="2386.1001"
   y1="707.70001"
   x1="2386.1001"
   class="st0" /><rect
   style="fill:none;stroke:#797979;stroke-width:4.34009981"
   id="rect68"
   height="34.700001"
   width="719.40002"
   class="st0"
   y="1085.8"
   x="382.70001" /><line
   style="fill:none;stroke:#797979;stroke-width:4.34009981"
   id="line70"
   y2="1101.8"
   x2="1435.2"
   y1="1101.8"
   x1="1720.4"
   class="st0" /><polyline
   style="fill:none;stroke:#797979;stroke-width:4.34009981"
   id="polyline72"
   points="2439.7,1101.8 2568.9,1101.8 2568.9,1223.6 1341.6,1223.6 1341.6,885 1374.9,885  "
   class="st0" /><rect
   style="fill:none;stroke:#797979;stroke-width:4.34009981"
   id="rect74"
   height="34.700001"
   width="719.40002"
   class="st0"
   y="1085.8"
   x="1720.4" /><line
   style="fill:none;stroke:#797979;stroke-width:4.34009981"
   id="line76"
   y2="1101.8"
   x2="1435.2"
   y1="911.20001"
   x1="1435.2"
   class="st0" />
<path
   id="path79"
   d="m 2453.3,415.3 11.5,31.8 H 2442 Z"
   class="st1"
   inkscape:connector-curvature="0"
   style="fill:#797979" /><path
   id="path81"
   d="m 2257.4,415.3 11.5,31.8 h -22.7 z"
   class="st1"
   inkscape:connector-curvature="0"
   style="fill:#797979" /><path
   id="path83"
   d="m 2006.7,415.3 11.5,31.8 h -22.7 z"
   class="st1"
   inkscape:connector-curvature="0"
   style="fill:#797979" /><path
   id="path85"
   d="m 1842.7,415.3 11.5,31.8 h -22.7 z"
   class="st1"
   inkscape:connector-curvature="0"
   style="fill:#797979" /><path
   id="path87"
   d="m 1666.8,415.3 11.5,31.8 h -22.7 z"
   class="st1"
   inkscape:connector-curvature="0"
   style="fill:#797979" /><path
   id="path89"
   d="m 1151.6,414.6 11.5,31.8 h -22.7 z"
   class="st1"
   inkscape:connector-curvature="0"
   style="fill:#797979" /><path
   id="path91"
   d="m 1131,467 11.5,31.8 h -22.7 z"
   class="st1"
   inkscape:connector-curvature="0"
   style="fill:#797979" /><path
   id="path93"
   d="m 973.3,415.3 11.5,31.8 h -22.7 z"
   class="st1"
   inkscape:connector-curvature="0"
   style="fill:#797979" /><path
   id="path95"
   d="m 950.1,463.1 11.5,31.8 h -22.7 z"
   class="st1"
   inkscape:connector-curvature="0"
   style="fill:#797979" /><path
   id="path97"
   d="m 923,511 11.5,31.8 h -22.7 z"
   class="st1"
   inkscape:connector-curvature="0"
   style="fill:#797979" /><path
   id="path99"
   d="m 850.8,415.3 11.5,31.8 h -22.7 z"
   class="st1"
   inkscape:connector-curvature="0"
   style="fill:#797979" /><path
   id="path101"
   d="m 830.1,463.1 11.5,31.8 h -22.7 z"
   class="st1"
   inkscape:connector-curvature="0"
   style="fill:#797979" /><path
   id="path103"
   d="M 808.5,511 820,542.8 H 797.3 Z"
   class="st1"
   inkscape:connector-curvature="0"
   style="fill:#797979" /><path
   id="path105"
   d="m 678.7,415.3 11.5,31.8 h -22.7 z"
   class="st1"
   inkscape:connector-curvature="0"
   style="fill:#797979" /><path
   id="path107"
   d="m 655.6,463.1 11.5,31.8 h -22.7 z"
   class="st1"
   inkscape:connector-curvature="0"
   style="fill:#797979" /><path
   id="path109"
   d="M 632.5,511 644,542.8 H 621.3 Z"
   class="st1"
   inkscape:connector-curvature="0"
   style="fill:#797979" /><path
   id="path111"
   d="m 548.3,415.3 11.5,31.8 H 537 Z"
   class="st1"
   inkscape:connector-curvature="0"
   style="fill:#797979" /><path
   id="path113"
   d="m 527.2,463 11.5,31.8 H 516 Z"
   class="st1"
   inkscape:connector-curvature="0"
   style="fill:#797979" /><path
   id="path115"
   d="m 504.6,511 11.5,31.8 h -22.7 z"
   class="st1"
   inkscape:connector-curvature="0"
   style="fill:#797979" /><path
   id="path117"
   d="m 371.1,415.3 11.5,31.8 h -22.7 z"
   class="st1"
   inkscape:connector-curvature="0"
   style="fill:#797979" /><path
   id="path119"
   d="M 349.5,463 361,494.8 H 338.3 Z"
   class="st1"
   inkscape:connector-curvature="0"
   style="fill:#797979" /><path
   id="path121"
   d="m 328.4,511 11.5,31.8 h -22.7 z"
   class="st1"
   inkscape:connector-curvature="0"
   style="fill:#797979" />
<polyline
   style="fill:none;stroke:#797979;stroke-width:4.0862155"
   id="polyline38"
   points="548.4,362.5 548.4,695.6 473.1,695.6  "
   class="st0"
   transform="matrix(1,0,0,1.1281242,0,-97.188596)" /><polyline
   style="fill:none;stroke:#797979;stroke-width:3.93422461"
   id="polyline40"
   points="525.2,362.5 525.2,673.6 473.1,673.6  "
   class="st0"
   transform="matrix(1.0840081,0,0,1.1226611,-41.932638,-95.208222)" /><polyline
   style="fill:none;stroke:#797979;stroke-width:3.7514894"
   id="polyline42"
   points="502.7,362.5 502.1,650.2 473.1,650.2  "
   class="st0"
   transform="matrix(1.2072025,0,0,1.1086945,-101.09408,-90.140992)" /><polyline
   style="fill:none;stroke:#797979;stroke-width:3.53310251"
   id="polyline44"
   points="374.8,387.1 374.8,648.9 403.7,648.9  "
   class="st0"
   transform="matrix(1.2388109,0,0,1.2180969,-92.957149,-159.76888)" /><polyline
   style="fill:none;stroke:#797979;stroke-width:3.78743672"
   id="polyline46"
   points="404.1,673.6 351.6,673.6 351.6,387.1  "
   class="st0"
   transform="matrix(1.0774823,0,0,1.2187046,-29.276683,-160.00412)" /><polyline
   style="fill:none;stroke:#797979;stroke-width:3.93241096"
   id="polyline48"
   points="404.1,695.6 328.5,695.6 328.5,387.8  "
   class="st0"
   transform="matrix(1,0,0,1.2180963,0,-160.62132)" /></svg>