<?xml version="1.0" encoding="UTF-8" standalone="no"?>
<svg
   xmlns:dc="http://purl.org/dc/elements/1.1/"
   xmlns:cc="http://creativecommons.org/ns#"
   xmlns:rdf="http://www.w3.org/1999/02/22-rdf-syntax-ns#"
   xmlns:svg="http://www.w3.org/2000/svg"
   xmlns="http://www.w3.org/2000/svg"
   xmlns:sodipodi="http://sodipodi.sourceforge.net/DTD/sodipodi-0.dtd"
   xmlns:inkscape="http://www.inkscape.org/namespaces/inkscape"
   height="1000"
   width="2572.5"
   id="svg124"
   xml:space="preserve"
   viewBox="0 0 2572.5 1000"
   y="0px"
   x="0px"
   version="1.1"
   sodipodi:docname="G01 Lubrication System_v07.svg"
   inkscape:version="0.92.4 (5da689c313, 2019-01-14)"><sodipodi:namedview
   pagecolor="#ffffff"
   bordercolor="#666666"
   borderopacity="1"
   objecttolerance="10"
   gridtolerance="10"
   guidetolerance="10"
   inkscape:pageopacity="0"
   inkscape:pageshadow="2"
   inkscape:window-width="2560"
   inkscape:window-height="1361"
   id="namedview64"
   showgrid="false"
   inkscape:zoom="0.61153426"
   inkscape:cx="1286.25"
   inkscape:cy="500"
   inkscape:window-x="-9"
   inkscape:window-y="-9"
   inkscape:window-maximized="1"
   inkscape:current-layer="svg124" /><metadata
   id="metadata130"><rdf:RDF><cc:Work
       rdf:about=""><dc:format>image/svg+xml</dc:format><dc:type
         rdf:resource="http://purl.org/dc/dcmitype/StillImage" /><dc:title /></cc:Work></rdf:RDF></metadata><defs
   id="defs128" />
<style
   id="style2"
   type="text/css">
	.st0{fill:none;stroke:#797979;stroke-width:4.3401;}
	.st1{fill:#797979;}
</style>
<path
   class="st0"
   d="M 2452.9626,40.156444 V 359.24623 h -35.6252"
   id="path4"
   style="fill:none;stroke:#797979;stroke-width:4.34009981"
   inkscape:connector-curvature="0" /><path
   class="st0"
   d="M 2258.7307,40.156454 V 415.93916 h 88.5386"
   id="path6"
   style="fill:none;stroke:#797979;stroke-width:4.34009981"
   inkscape:connector-curvature="0" /><path
   class="st0"
   d="m 2008.7489,40.161604 -0.7578,319.082326 h 35.6177"
   id="path8"
   style="fill:none;stroke:#797979;stroke-width:4.34010029"
   inkscape:connector-curvature="0" /><polyline
   transform="matrix(0.64997856,0,0,0.61244409,630.81441,-38.296026)"
   class="st0"
   points="1863.5,128.1 1863.1,649.8 1809.5,649.8  "
   id="polyline10"
   style="fill:none;stroke:#797979;stroke-width:6.87886763" /><polyline
   transform="matrix(1.5665567,0,0,0.66288277,-972.67004,-44.960106)"
   class="st0"
   points="1684.7,128.1 1684.4,695.6 1740.6,695.6  "
   id="polyline12"
   style="opacity:1;fill:none;stroke:#797979;stroke-width:3.92526126;stroke-miterlimit:4;stroke-dasharray:none" /><polyline
   transform="matrix(1,0,0,0.6850043,0,-64.443706)"
   class="st0"
   points="1151.8,152.7 1151.8,696.1 1080.2,696.1  "
   id="polyline14"
   style="fill:none;stroke:#797979;stroke-width:5.24388409" /><polyline
   transform="matrix(1.1859109,0,0,0.67432683,-205.18989,-62.813256)"
   class="st0"
   points="1127.2,152.7 1127.2,671.5 1080.2,671.5  "
   id="polyline18"
   style="fill:none;stroke:#797979;stroke-width:4.85331535" /><polyline
   transform="matrix(0.84012148,0,0,0.64207038,158.33573,-57.886556)"
   class="st0"
   points="969.2,152.7 969.5,649.8 1011.5,649.8  "
   id="polyline20"
   style="fill:none;stroke:#797979;stroke-width:5.90931797" /><polyline
   transform="matrix(0.860029,0,0,0.67377098,137.01062,-62.728376)"
   class="st0"
   points="946.2,152.7 946.2,671.5 1011.5,671.5  "
   id="polyline22"
   style="fill:none;stroke:#797979;stroke-width:5.70147228" /><polyline
   transform="matrix(1,0,0,0.69153735,0,-65.441306)"
   class="st0"
   points="923.1,152.7 923.1,696.1 1011.5,696.1  "
   id="polyline24"
   style="fill:none;stroke:#797979;stroke-width:5.21905518" /><polyline
   transform="matrix(1,0,0,0.83451071,0,-164.54903)"
   class="st0"
   points="851,245.3 851,695.6 778.6,695.6  "
   id="polyline26"
   style="fill:none;stroke:#797979;stroke-width:4.7509861" /><polyline
   transform="matrix(1.1302341,0,0,0.8163144,-104.63008,-160.08332)"
   class="st0"
   points="828.2,245.3 827.7,673.6 778.6,673.6  "
   id="polyline28"
   style="fill:none;stroke:#797979;stroke-width:4.51842213" /><polyline
   transform="matrix(1.3493819,0,0,0.78891593,-276.58819,-153.36463)"
   class="st0"
   points="804.7,245.3 804.7,650.2 778.6,650.2  "
   id="polyline30"
   style="fill:none;stroke:#797979;stroke-width:4.20646143" /><polyline
   transform="matrix(1.1484461,0,0,0.83938931,-103.05877,-186.39472)"
   class="st0"
   points="678.8,269.9 678.8,650.2 709.7,650.2  "
   id="polyline32"
   style="fill:none;stroke:#797979;stroke-width:4.42041159" /><polyline
   transform="matrix(1.0451139,0,0,0.86573422,-30.799279,-193.50521)"
   class="st0"
   points="709.6,673.6 655.8,673.6 655.8,269.9  "
   id="polyline34"
   style="fill:none;stroke:#797979;stroke-width:4.5627389" /><polyline
   transform="matrix(1,0,0,0.88274068,0,-198.09526)"
   class="st0"
   points="632.6,269.9 632.6,695.6 709.6,695.6  "
   id="polyline36"
   style="fill:none;stroke:#797979;stroke-width:4.61937428" /><line
   class="st0"
   x1="742.40002"
   y1="418.60004"
   x2="742.40002"
   y2="798.20007"
   id="line50"
   style="fill:none;stroke:#797979;stroke-width:4.34009981" /><line
   class="st0"
   x1="438.39999"
   y1="419.20001"
   x2="438.39999"
   y2="798.20007"
   id="line52"
   style="fill:none;stroke:#797979;stroke-width:4.34009981" /><line
   class="st0"
   x1="1046.2"
   y1="418.60004"
   x2="1046.2"
   y2="798.20007"
   id="line54"
   style="fill:none;stroke:#797979;stroke-width:4.34009981" /><line
   class="st0"
   x1="382.70001"
   y1="814.20007"
   x2="97.599998"
   y2="814.20007"
   id="line56"
   style="fill:none;stroke:#797979;stroke-width:4.34009981" /><line
   class="st0"
   x1="97.599998"
   y1="623.60004"
   x2="97.599998"
   y2="814.20007"
   id="line58"
   style="fill:none;stroke:#797979;stroke-width:4.34009981" /><polyline
   transform="translate(0,-287.59998)"
   class="st0"
   points="1102.1,1101.8 1231.2,1101.8 1231.2,1223.6 4,1223.6 4,885 37.2,885  "
   id="polyline60"
   style="fill:none;stroke:#797979;stroke-width:4.34009981" /><line
   class="st0"
   x1="1776.1"
   y1="418.60004"
   x2="1776.1"
   y2="798.20007"
   id="line62"
   style="fill:none;stroke:#797979;stroke-width:4.34009981" /><line
   class="st0"
   x1="2080.1001"
   y1="420.10004"
   x2="2080.1001"
   y2="798.20007"
   id="line64"
   style="fill:none;stroke:#797979;stroke-width:4.34009981" /><line
   class="st0"
   x1="2386.1001"
   y1="420.10004"
   x2="2386.1001"
   y2="798.20007"
   id="line66"
   style="fill:none;stroke:#797979;stroke-width:4.34009981" /><rect
   x="382.70001"
   y="798.20007"
   class="st0"
   width="719.40002"
   height="34.700001"
   id="rect68"
   style="fill:none;stroke:#797979;stroke-width:4.34009981" /><line
   class="st0"
   x1="1720.4"
   y1="814.20007"
   x2="1435.2"
   y2="814.20007"
   id="line70"
   style="fill:none;stroke:#797979;stroke-width:4.34009981" /><polyline
   transform="translate(0,-287.59998)"
   class="st0"
   points="2439.7,1101.8 2568.9,1101.8 2568.9,1223.6 1341.6,1223.6 1341.6,885 1374.9,885  "
   id="polyline72"
   style="fill:none;stroke:#797979;stroke-width:4.34009981" /><rect
   x="1720.4"
   y="798.20007"
   class="st0"
   width="719.40002"
   height="34.700001"
   id="rect74"
   style="fill:none;stroke:#797979;stroke-width:4.34009981" /><line
   class="st0"
   x1="1435.2"
   y1="623.60004"
   x2="1435.2"
   y2="814.20007"
   id="line76"
   style="fill:none;stroke:#797979;stroke-width:4.34009981" />
<path
   style="fill:#797979"
   class="st1"
   d="m 2453.3,143.70002 11.5,31.8 H 2442 Z"
   id="path79"
   inkscape:connector-curvature="0" /><path
   style="fill:#797979"
   class="st1"
   d="m 2257.4,143.70002 11.5,31.8 h -22.7 z"
   id="path81"
   inkscape:connector-curvature="0" /><path
   style="fill:#797979"
   class="st1"
   d="m 2006.7,143.70002 11.5,31.8 h -22.7 z"
   id="path83"
   inkscape:connector-curvature="0" /><path
   style="fill:#797979"
   class="st1"
   d="m 1842.7,143.70002 11.5,31.8 h -22.7 z"
   id="path85"
   inkscape:connector-curvature="0" /><path
   style="fill:#797979"
   class="st1"
   d="m 1666.8,143.70002 11.5,31.8 h -22.7 z"
   id="path87"
   inkscape:connector-curvature="0" /><path
   style="fill:#797979"
   class="st1"
   d="m 1151.6,143.00002 11.5,31.8 h -22.7 z"
   id="path89"
   inkscape:connector-curvature="0" /><path
   style="fill:#797979"
   class="st1"
   d="m 1131,195.40002 11.5,31.8 h -22.7 z"
   id="path91"
   inkscape:connector-curvature="0" /><path
   style="fill:#797979"
   class="st1"
   d="m 973.3,143.70002 11.5,31.8 h -22.7 z"
   id="path93"
   inkscape:connector-curvature="0" /><path
   style="fill:#797979"
   class="st1"
   d="m 950.1,191.50002 11.5,31.8 h -22.7 z"
   id="path95"
   inkscape:connector-curvature="0" /><path
   style="fill:#797979"
   class="st1"
   d="m 923,239.40002 11.5,31.8 h -22.7 z"
   id="path97"
   inkscape:connector-curvature="0" /><path
   style="fill:#797979"
   class="st1"
   d="m 850.8,143.70002 11.5,31.8 h -22.7 z"
   id="path99"
   inkscape:connector-curvature="0" /><path
   style="fill:#797979"
   class="st1"
   d="m 830.1,191.50002 11.5,31.8 h -22.7 z"
   id="path101"
   inkscape:connector-curvature="0" /><path
   style="fill:#797979"
   class="st1"
   d="m 808.5,239.40002 11.5,31.8 h -22.7 z"
   id="path103"
   inkscape:connector-curvature="0" /><path
   style="fill:#797979"
   class="st1"
   d="m 678.7,143.70002 11.5,31.8 h -22.7 z"
   id="path105"
   inkscape:connector-curvature="0" /><path
   style="fill:#797979"
   class="st1"
   d="m 655.6,191.50002 11.5,31.8 h -22.7 z"
   id="path107"
   inkscape:connector-curvature="0" /><path
   style="fill:#797979"
   class="st1"
   d="m 632.5,239.40002 11.5,31.8 h -22.7 z"
   id="path109"
   inkscape:connector-curvature="0" /><path
   style="fill:#797979"
   class="st1"
   d="m 548.3,143.70002 11.5,31.8 H 537 Z"
   id="path111"
   inkscape:connector-curvature="0" /><path
   style="fill:#797979"
   class="st1"
   d="m 527.2,191.40002 11.5,31.8 H 516 Z"
   id="path113"
   inkscape:connector-curvature="0" /><path
   style="fill:#797979"
   class="st1"
   d="m 504.6,239.40002 11.5,31.8 h -22.7 z"
   id="path115"
   inkscape:connector-curvature="0" /><path
   style="fill:#797979"
   class="st1"
   d="m 371.1,143.70002 11.5,31.8 h -22.7 z"
   id="path117"
   inkscape:connector-curvature="0" /><path
   style="fill:#797979"
   class="st1"
   d="m 349.5,191.40002 11.5,31.8 h -22.7 z"
   id="path119"
   inkscape:connector-curvature="0" /><path
   style="fill:#797979"
   class="st1"
   d="m 328.4,239.40002 11.5,31.8 h -22.7 z"
   id="path121"
   inkscape:connector-curvature="0" />
<polyline
   transform="matrix(1,0,0,1.1281242,0,-368.78857)"
   class="st0"
   points="548.4,362.5 548.4,695.6 473.1,695.6  "
   id="polyline38"
   style="fill:none;stroke:#797979;stroke-width:4.0862155" /><polyline
   transform="matrix(1.0840081,0,0,1.1226611,-41.932638,-366.8082)"
   class="st0"
   points="525.2,362.5 525.2,673.6 473.1,673.6  "
   id="polyline40"
   style="fill:none;stroke:#797979;stroke-width:3.93422461" /><polyline
   transform="matrix(1.2072025,0,0,1.1086945,-101.09408,-361.74097)"
   class="st0"
   points="502.7,362.5 502.1,650.2 473.1,650.2  "
   id="polyline42"
   style="fill:none;stroke:#797979;stroke-width:3.7514894" /><polyline
   transform="matrix(1.2388109,0,0,1.2180969,-92.957149,-431.36886)"
   class="st0"
   points="374.8,387.1 374.8,648.9 403.7,648.9  "
   id="polyline44"
   style="fill:none;stroke:#797979;stroke-width:3.53310251" /><polyline
   transform="matrix(1.0774823,0,0,1.2187046,-29.276683,-431.6041)"
   class="st0"
   points="404.1,673.6 351.6,673.6 351.6,387.1  "
   id="polyline46"
   style="fill:none;stroke:#797979;stroke-width:3.78743672" /><polyline
   transform="matrix(1,0,0,1.2180963,0,-432.2213)"
   class="st0"
   points="404.1,695.6 328.5,695.6 328.5,387.8  "
   id="polyline48"
   style="fill:none;stroke:#797979;stroke-width:3.93241096" /></svg>