<?xml version="1.0" encoding="utf-8"?>
<!-- Generator: Adobe Illustrator 24.0.2, SVG Export Plug-In . SVG Version: 6.00 Build 0)  -->
<svg version="1.1" xmlns="http://www.w3.org/2000/svg" xmlns:xlink="http://www.w3.org/1999/xlink" x="0px" y="0px"
	 viewBox="0 0 2563.7 1287.6" style="enable-background:new 0 0 2563.7 1287.6;" xml:space="preserve">
<style type="text/css">
	.st0{fill:none;stroke:#797979;stroke-width:4.3401;}
	.st1{fill:#797979;}
</style>
<g id="lines">
	<path class="st0" d="M-0.1,8.1h2500.7v641.7l-88.5,0"/>
	<path class="st0" d="M0,32.7l2246.7,0.7v662.7h95"/>
	<path class="st0" d="M0.3,128.1h1954l-1.8,521.7h84.6"/>
	<polyline class="st0" points="1854.6,128.1 1854.3,649.8 1800.7,649.8 	"/>
	<polyline class="st0" points="1675.9,128.1 1675.5,695.6 1731.8,695.6 	"/>
	<polyline class="st0" points="-0.1,152.7 1118.9,152.7 1142.9,152.7 1142.9,696.1 1071.3,696.1 	"/>
	<path class="st0" d="M1118.3,671.5"/>
	<polyline class="st0" points="1118.3,152.7 1118.3,671.5 1071.3,671.5 	"/>
	<polyline class="st0" points="960.4,152.7 960.7,649.8 1002.6,649.8 	"/>
	<polyline class="st0" points="937.4,152.7 937.4,671.5 1002.6,671.5 	"/>
	<polyline class="st0" points="914.2,152.7 914.2,696.1 1002.6,696.1 	"/>
	<polyline class="st0" points="-0.1,245.3 842.1,245.3 842.1,695.6 769.7,695.6 	"/>
	<polyline class="st0" points="819.4,245.3 818.8,673.6 769.7,673.6 	"/>
	<polyline class="st0" points="795.8,245.3 795.8,650.2 769.7,650.2 	"/>
	<polyline class="st0" points="-0.1,269.9 670,269.9 670,650.2 700.8,650.2 	"/>
	<polyline class="st0" points="700.7,673.6 646.9,673.6 646.9,269.9 	"/>
	<polyline class="st0" points="623.7,269.9 623.7,695.6 700.7,695.6 	"/>
	<polyline class="st0" points="-0.1,362.5 539.5,362.5 539.5,695.6 464.2,695.6 	"/>
	<polyline class="st0" points="516.4,362.5 516.4,673.6 464.2,673.6 	"/>
	<polyline class="st0" points="493.8,362.5 493.2,650.2 464.2,650.2 	"/>
	<polyline class="st0" points="-0.1,387.1 341.9,387.1 365.9,387.1 365.9,648.9 394.9,648.9 	"/>
	<polyline class="st0" points="395.2,673.6 342.8,673.6 342.8,387.1 	"/>
	<polyline class="st0" points="395.2,695.6 319.6,695.6 319.6,387.8 	"/>
	<line class="st0" x1="733.5" y1="706.2" x2="733.5" y2="1085.8"/>
	<line class="st0" x1="429.6" y1="706.8" x2="429.6" y2="1085.8"/>
	<line class="st0" x1="1037.3" y1="706.2" x2="1037.3" y2="1085.8"/>
	<line class="st0" x1="373.9" y1="1101.8" x2="140.7" y2="1101.8"/>
	<line class="st0" x1="93.7" y1="1013.7" x2="93.7" y2="1054.8"/>
	<polyline class="st0" points="1093.2,1101.8 1222.3,1101.8 1222.3,1281.1 0.1,1281.1 0.1,987.5 33.4,987.5 	"/>
	<line class="st0" x1="1767.2" y1="706.2" x2="1767.2" y2="1085.8"/>
	<line class="st0" x1="2071.2" y1="707.7" x2="2071.2" y2="1085.8"/>
	<line class="st0" x1="2377.2" y1="707.7" x2="2377.2" y2="1085.8"/>
	<rect x="373.9" y="1085.8" class="st0" width="719.4" height="34.7"/>
	<line class="st0" x1="1711.5" y1="1101.8" x2="1478.3" y2="1101.8"/>
	<polyline class="st0" points="2430.9,1101.8 2560,1101.8 2560,1281.1 1337.8,1281.1 1337.8,987.5 1371,987.5 	"/>
	<rect x="1711.5" y="1085.8" class="st0" width="719.4" height="34.7"/>
	<line class="st0" x1="1431.4" y1="1013.7" x2="1431.4" y2="1054.8"/>
</g>
<g id="arrows">
	<path class="st1" d="M2500.4,511l11.5,31.8h-22.7L2500.4,511z"/>
	<path class="st1" d="M2246.5,511l11.5,31.8h-22.7L2246.5,511z"/>
	<path class="st1" d="M1953.8,415.3l11.5,31.8h-22.7L1953.8,415.3z"/>
	<path class="st1" d="M1853.9,511l11.5,31.8h-22.7L1853.9,511z"/>
	<path class="st1" d="M1675.9,511l11.5,31.8h-22.7L1675.9,511z"/>
	<path class="st1" d="M1142.8,414.6l11.5,31.8h-22.7L1142.8,414.6z"/>
	<path class="st1" d="M1118.2,467l11.5,31.8h-22.7L1118.2,467z"/>
	<path class="st1" d="M960.5,415.3l11.5,31.8h-22.7L960.5,415.3z"/>
	<path class="st1" d="M937.3,463.1l11.5,31.8H926L937.3,463.1z"/>
	<path class="st1" d="M914.1,511l11.5,31.8h-22.7L914.1,511z"/>
	<path class="st1" d="M842,415.3l11.5,31.8h-22.7L842,415.3z"/>
	<path class="st1" d="M819.2,463.1l11.5,31.8h-22.7L819.2,463.1z"/>
	<path class="st1" d="M795.7,511l11.5,31.8h-22.7L795.7,511z"/>
	<path class="st1" d="M669.8,415.3l11.5,31.8h-22.7L669.8,415.3z"/>
	<path class="st1" d="M646.8,463.1l11.5,31.8h-22.7L646.8,463.1z"/>
	<path class="st1" d="M623.6,511l11.5,31.8h-22.7L623.6,511z"/>
	<path class="st1" d="M539.4,415.3l11.5,31.8h-22.7L539.4,415.3z"/>
	<path class="st1" d="M516.3,463l11.5,31.8H505L516.3,463z"/>
	<path class="st1" d="M493.7,511l11.5,31.8h-22.7L493.7,511z"/>
	<path class="st1" d="M366.3,415.3l11.5,31.8H355L366.3,415.3z"/>
	<path class="st1" d="M342.7,463l11.5,31.8h-22.7L342.7,463z"/>
	<path class="st1" d="M319.5,511l11.5,31.8h-22.7L319.5,511z"/>
</g>
</svg>
