<svg xmlns="http://www.w3.org/2000/svg" viewBox="0 0 1912 985.33333"><defs><style>.cls-1{fill:none;stroke:#797979;stroke-width:3px;}.cls-2{fill:#797979;}</style></defs><title>Artboard 1</title><g id="lines"><path class="cls-1" d="M12.5,14.20834H1851.54253V457.77778l-56.16667-.00052"/><path class="cls-1" d="M12.58333,31.20834l1673.4592.5V489.77778h60.66666"/><path class="cls-1" d="M12.83339,97.16667H1479.00091l-1.25,360.61111h58.5"/><polyline class="cls-1" points="1410.056 97.167 1409.805 457.778 1372.748 457.778"/><polyline class="cls-1" points="1286.5 97.167 1286.25 489.444 1325.132 489.444"/><polyline class="cls-1" points="12.5 114.167 879 114.167 895.611 114.167 895.611 489.778 846.111 489.778"/><polyline class="cls-1" points="878.611 114.167 878.611 472.778 846.111 472.778"/><polyline class="cls-1" points="769.403 114.167 769.611 457.778 798.611 457.778"/><polyline class="cls-1" points="753.5 114.167 753.5 472.778 798.611 472.778"/><polyline class="cls-1" points="737.5 114.167 737.5 489.778 798.611 489.778"/><polyline class="cls-1" points="12.5 178.167 687.681 178.167 687.681 489.444 637.613 489.444"/><polyline class="cls-1" points="671.959 178.167 671.557 474.215 637.613 474.215"/><polyline class="cls-1" points="655.681 178.167 655.681 458.049 637.613 458.049"/><polyline class="cls-1" points="12.5 195.167 568.681 195.167 568.681 458.049 589.998 458.049"/><polyline class="cls-1" points="589.943 474.215 552.75 474.215 552.75 195.167"/><polyline class="cls-1" points="536.694 195.167 536.694 489.444 589.943 489.444"/><polyline class="cls-1" points="12.5 259.167 478.514 259.167 478.514 489.444 426.446 489.444"/><polyline class="cls-1" points="462.514 259.167 462.514 474.215 426.439 474.215"/><polyline class="cls-1" points="446.903 259.167 446.514 458.049 426.439 458.049"/><polyline class="cls-1" points="12.5 276.167 341.889 276.167 358.514 276.167 358.514 457.167 378.514 457.167"/><polyline class="cls-1" points="378.777 474.215 342.5 474.215 342.5 276.167"/><polyline class="cls-1" points="378.777 489.444 326.5 489.444 326.5 276.667"/><line class="cls-1" x1="612.625" y1="496.77778" x2="612.625" y2="839.16667"/><line class="cls-1" x1="402.51389" y1="497.16667" x2="402.51389" y2="839.16667"/><line class="cls-1" x1="822.61111" y1="496.77778" x2="822.61111" y2="839.16667"/><line class="cls-1" x1="364" y1="850.16667" x2="202.80967" y2="850.16667"/><line class="cls-1" x1="170.36522" y1="789.33333" x2="170.36522" y2="817.72222"/><polyline class="cls-1" points="861.25 850.167 950.5 850.167 950.5 974.167 105.643 974.167 105.643 771.167 128.643 771.167"/><line class="cls-1" x1="1349.63854" y1="496.77778" x2="1349.63854" y2="839.16667"/><line class="cls-1" x1="1559.75086" y1="497.77778" x2="1559.75086" y2="839.16667"/><line class="cls-1" x1="1771.29253" y1="497.77778" x2="1771.29253" y2="839.16667"/><rect class="cls-1" x="364" y="839.16667" width="497.25" height="24"/><line class="cls-1" x1="1311.12586" y1="850.16667" x2="1149.93553" y2="850.16667"/><polyline class="cls-1" points="1808.376 850.167 1897.626 850.167 1897.626 974.167 1052.769 974.167 1052.769 771.167 1075.769 771.167"/><rect class="cls-1" x="1311.12586" y="839.16667" width="497.25" height="24"/><line class="cls-1" x1="1117.49108" y1="789.33333" x2="1117.49108" y2="817.72222"/></g><g id="arrows"><path class="cls-2" d="M1851.42413,361.83333l7.91984,21.99958H1843.63Z"/><path class="cls-2" d="M1685.92413,361.83333l7.91984,21.99958H1678.13Z"/><path class="cls-2" d="M1478.63246,295.68045,1486.5523,317.68h-15.714Z"/><path class="cls-2" d="M1409.52015,361.83333l7.91984,21.99958h-15.714Z"/><path class="cls-2" d="M1286.52015,361.83333l7.91984,21.99958h-15.714Z"/><path class="cls-2" d="M895.49271,295.1533l7.91985,21.99958h-15.714Z"/><path class="cls-2" d="M878.49271,331.43045,886.41256,353.43h-15.714Z"/><path class="cls-2" d="M769.49271,295.68045,777.41256,317.68h-15.714Z"/><path class="cls-2" d="M753.43716,328.68045,761.357,350.68H745.643Z"/><path class="cls-2" d="M737.43716,361.83333l7.91984,21.99958H729.643Z"/><path class="cls-2" d="M687.56216,295.68045,695.482,317.68H679.768Z"/><path class="cls-2" d="M671.841,328.68045,679.76085,350.68h-15.714Z"/><path class="cls-2" d="M655.56216,361.83333l7.91984,21.99958H647.768Z"/><path class="cls-2" d="M568.56216,295.68045,576.482,317.68H560.768Z"/><path class="cls-2" d="M552.6316,328.68045,560.55144,350.68h-15.714Z"/><path class="cls-2" d="M536.6316,361.83333l7.91984,21.99958h-15.714Z"/><path class="cls-2" d="M478.45105,295.66709l7.91984,21.99958h-15.714Z"/><path class="cls-2" d="M462.45105,328.66709l7.91984,21.99958h-15.714Z"/><path class="cls-2" d="M446.83994,361.82l7.91984,21.99958h-15.714Z"/><path class="cls-2" d="M358.7566,295.66709l7.91984,21.99958h-15.714Z"/><path class="cls-2" d="M342.43716,328.66709l7.91984,21.99958H334.643Z"/><path class="cls-2" d="M326.43716,361.82l7.91984,21.99958H318.643Z"/></g></svg>