<?xml version="1.0" encoding="utf-8"?>
<!-- Generator: Adobe Illustrator 24.0.2, SVG Export Plug-In . SVG Version: 6.00 Build 0)  -->
<svg version="1.1" xmlns="http://www.w3.org/2000/svg" xmlns:xlink="http://www.w3.org/1999/xlink" x="0px" y="0px"
	 viewBox="0 0 2572.5 1287.6" style="enable-background:new 0 0 2572.5 1287.6;" xml:space="preserve">
<style type="text/css">
	.st0{fill:none;stroke:#797979;stroke-width:4.3401;}
	.st1{fill:#797979;}
</style>
<g id="lines">
	<path class="st0" d="M3.2,8.1h2506.2v641.7l-88.5,0"/>
	<path class="st0" d="M3.3,32.7l2252.2,0.7v662.7h95"/>
	<path class="st0" d="M3.7,128.1h1959.6l-1.8,521.7h84.6"/>
	<polyline class="st0" points="1863.5,128.1 1863.1,649.8 1809.5,649.8 	"/>
	<polyline class="st0" points="1684.7,128.1 1684.4,695.6 1740.6,695.6 	"/>
	<polyline class="st0" points="3.2,152.7 1127.8,152.7 1151.8,152.7 1151.8,696.1 1080.2,696.1 	"/>
	<path class="st0" d="M1127.2,671.5"/>
	<polyline class="st0" points="1127.2,152.7 1127.2,671.5 1080.2,671.5 	"/>
	<polyline class="st0" points="969.2,152.7 969.5,649.8 1011.5,649.8 	"/>
	<polyline class="st0" points="946.2,152.7 946.2,671.5 1011.5,671.5 	"/>
	<polyline class="st0" points="923.1,152.7 923.1,696.1 1011.5,696.1 	"/>
	<polyline class="st0" points="3.2,245.3 851,245.3 851,695.6 778.6,695.6 	"/>
	<polyline class="st0" points="828.2,245.3 827.7,673.6 778.6,673.6 	"/>
	<polyline class="st0" points="804.7,245.3 804.7,650.2 778.6,650.2 	"/>
	<polyline class="st0" points="3.2,269.9 678.8,269.9 678.8,650.2 709.7,650.2 	"/>
	<polyline class="st0" points="709.6,673.6 655.8,673.6 655.8,269.9 	"/>
	<polyline class="st0" points="632.6,269.9 632.6,695.6 709.6,695.6 	"/>
	<polyline class="st0" points="3.2,362.5 548.4,362.5 548.4,695.6 473.1,695.6 	"/>
	<polyline class="st0" points="525.2,362.5 525.2,673.6 473.1,673.6 	"/>
	<polyline class="st0" points="502.7,362.5 502.1,650.2 473.1,650.2 	"/>
	<polyline class="st0" points="3.2,387.1 350.7,387.1 374.8,387.1 374.8,648.9 403.7,648.9 	"/>
	<polyline class="st0" points="404.1,673.6 351.6,673.6 351.6,387.1 	"/>
	<polyline class="st0" points="404.1,695.6 328.5,695.6 328.5,387.8 	"/>
	<line class="st0" x1="742.4" y1="706.2" x2="742.4" y2="1085.8"/>
	<line class="st0" x1="438.4" y1="706.8" x2="438.4" y2="1085.8"/>
	<line class="st0" x1="1046.2" y1="706.2" x2="1046.2" y2="1085.8"/>
	<line class="st0" x1="382.7" y1="1101.8" x2="97.6" y2="1101.8"/>
	<line class="st0" x1="97.6" y1="911.2" x2="97.6" y2="1101.8"/>
	<polyline class="st0" points="1102.1,1101.8 1231.2,1101.8 1231.2,1223.6 4,1223.6 4,885 37.2,885 	"/>
	<line class="st0" x1="1776.1" y1="706.2" x2="1776.1" y2="1085.8"/>
	<line class="st0" x1="2080.1" y1="707.7" x2="2080.1" y2="1085.8"/>
	<line class="st0" x1="2386.1" y1="707.7" x2="2386.1" y2="1085.8"/>
	<rect x="382.7" y="1085.8" class="st0" width="719.4" height="34.7"/>
	<line class="st0" x1="1720.4" y1="1101.8" x2="1435.2" y2="1101.8"/>
	<polyline class="st0" points="2439.7,1101.8 2568.9,1101.8 2568.9,1223.6 1341.6,1223.6 1341.6,885 1374.9,885 	"/>
	<rect x="1720.4" y="1085.8" class="st0" width="719.4" height="34.7"/>
	<line class="st0" x1="1435.2" y1="911.2" x2="1435.2" y2="1101.8"/>
</g>
<g id="arrows">
	<path class="st1" d="M2509.3,511l11.5,31.8H2498L2509.3,511z"/>
	<path class="st1" d="M2255.4,511l11.5,31.8h-22.7L2255.4,511z"/>
	<path class="st1" d="M1962.7,415.3l11.5,31.8h-22.7L1962.7,415.3z"/>
	<path class="st1" d="M1862.7,511l11.5,31.8h-22.7L1862.7,511z"/>
	<path class="st1" d="M1684.8,511l11.5,31.8h-22.7L1684.8,511z"/>
	<path class="st1" d="M1151.6,414.6l11.5,31.8h-22.7L1151.6,414.6z"/>
	<path class="st1" d="M1127,467l11.5,31.8h-22.7L1127,467z"/>
	<path class="st1" d="M969.3,415.3l11.5,31.8h-22.7L969.3,415.3z"/>
	<path class="st1" d="M946.1,463.1l11.5,31.8h-22.7L946.1,463.1z"/>
	<path class="st1" d="M923,511l11.5,31.8h-22.7L923,511z"/>
	<path class="st1" d="M850.8,415.3l11.5,31.8h-22.7L850.8,415.3z"/>
	<path class="st1" d="M828.1,463.1l11.5,31.8h-22.7L828.1,463.1z"/>
	<path class="st1" d="M804.5,511l11.5,31.8h-22.7L804.5,511z"/>
	<path class="st1" d="M678.7,415.3l11.5,31.8h-22.7L678.7,415.3z"/>
	<path class="st1" d="M655.6,463.1l11.5,31.8h-22.7L655.6,463.1z"/>
	<path class="st1" d="M632.5,511l11.5,31.8h-22.7L632.5,511z"/>
	<path class="st1" d="M548.3,415.3l11.5,31.8H537L548.3,415.3z"/>
	<path class="st1" d="M525.2,463l11.5,31.8h-22.7L525.2,463z"/>
	<path class="st1" d="M502.6,511l11.5,31.8h-22.7L502.6,511z"/>
	<path class="st1" d="M375.1,415.3l11.5,31.8h-22.7L375.1,415.3z"/>
	<path class="st1" d="M351.5,463l11.5,31.8h-22.7L351.5,463z"/>
	<path class="st1" d="M328.4,511l11.5,31.8h-22.7L328.4,511z"/>
</g>
</svg>
